<?xml version="1.0" encoding="utf-8"?>
<!-- Generator: Adobe Illustrator 16.0.0, SVG Export Plug-In . SVG Version: 6.00 Build 0)  -->
<!DOCTYPE svg PUBLIC "-//W3C//DTD SVG 1.1//EN" "http://www.w3.org/Graphics/SVG/1.1/DTD/svg11.dtd">
<svg version="1.1" id="Layer_1" xmlns="http://www.w3.org/2000/svg" xmlns:xlink="http://www.w3.org/1999/xlink" x="0px" y="0px"
	 width="30px" height="30px" viewBox="0 0 30 30" enable-background="new 0 0 30 30" xml:space="preserve">
<g>
	<path fill="#49C4DB" d="M15.977,15.426l-0.085-0.023c-0.266-0.13-0.435-0.397-0.435-0.695V9.168c0-0.028-0.002-0.058-0.008-0.085
		c0.604-0.21,1.039-0.787,1.039-1.461c0-0.67-0.437-1.278-1.036-1.49V0.224c-0.154-0.002-0.535,0-0.535,0s-0.132,0-0.489,0v5.941
		c-0.601,0.213-1.032,0.786-1.032,1.457c0,0.674,0.435,1.251,1.039,1.461c-0.005,0.028-0.007,0.058-0.007,0.085v1.605
		c-0.474,0.107-0.772,0.364-1.023,0.579c-0.276,0.237-0.458,0.391-0.868,0.391s-0.592-0.153-0.867-0.391
		c-0.333-0.286-0.747-0.638-1.538-0.638c-0.792,0-1.205,0.353-1.538,0.638c-0.274,0.237-0.456,0.391-0.867,0.391
		c-0.41,0-0.592-0.153-0.867-0.391c-0.332-0.286-0.745-0.638-1.537-0.638c-0.791,0-1.205,0.353-1.538,0.638
		c-0.274,0.237-0.456,0.391-0.866,0.391c-0.411,0-0.592-0.153-0.868-0.391c-0.332-0.286-0.746-0.638-1.537-0.638
		C0.23,10.714,0,10.944,0,11.229c0,0.284,0.23,0.513,0.515,0.513c0.41,0,0.592,0.156,0.867,0.394
		c0.333,0.286,0.746,0.638,1.538,0.638c0.792,0,1.205-0.353,1.537-0.638c0.276-0.238,0.458-0.394,0.867-0.394
		c0.41,0,0.592,0.156,0.866,0.394c0.333,0.286,0.748,0.638,1.539,0.638c0.791,0,1.206-0.353,1.538-0.638
		c0.276-0.238,0.457-0.394,0.867-0.394s0.592,0.156,0.866,0.394c0.333,0.286,0.747,0.638,1.538,0.638
		c0.792,0,1.205-0.353,1.538-0.638c0.126-0.108,0.234-0.198,0.353-0.268v2.838c0,0.715,0.424,1.368,1.082,1.653
		c0.024,0.01,0.048,0.021,0.074,0.024l0.158,0.046c0.021,0.003,0.041,0.009,0.063,0.009c1.463,0.206,2.751,0.935,3.729,2.051
		c0.99,1.124,1.589,2.575,1.589,4.077c0,3.406-2.773,6.179-6.179,6.179c-3.411,0-6.184-2.772-6.184-6.179
		c0-0.858,0.176-1.699,0.514-2.476l0.575,1.102c0.091,0.176,0.271,0.274,0.457,0.274c0.08,0,0.161-0.019,0.238-0.06
		c0.253-0.128,0.35-0.438,0.218-0.691l-1.026-1.969c0,0-0.001,0-0.002-0.006c-0.004-0.009-0.011-0.019-0.016-0.029
		c-0.004-0.003-0.006-0.01-0.01-0.013c-0.005-0.011-0.012-0.015-0.018-0.023c-0.003-0.006-0.01-0.011-0.015-0.021
		c-0.004-0.004-0.011-0.009-0.017-0.016c-0.006-0.009-0.012-0.014-0.018-0.019c-0.004-0.005-0.009-0.008-0.014-0.014
		c-0.009-0.012-0.016-0.018-0.024-0.021c-0.005-0.006-0.01-0.011-0.015-0.016c-0.008-0.005-0.018-0.014-0.026-0.019
		c-0.002,0-0.004,0-0.006,0c-0.003-0.005-0.007-0.005-0.011-0.01c-0.009-0.006-0.02-0.01-0.028-0.016
		C9.507,18.525,9.5,18.525,9.491,18.52c-0.006-0.005-0.014-0.01-0.021-0.01c-0.009-0.005-0.019-0.009-0.027-0.009
		c-0.007-0.005-0.013-0.005-0.019-0.005c-0.01-0.006-0.021-0.01-0.03-0.01c-0.006,0-0.012-0.006-0.019-0.006
		c-0.009,0-0.021-0.003-0.03-0.003c-0.006,0-0.014,0-0.02,0c-0.01,0-0.019-0.007-0.027-0.007c-0.009,0-0.016,0-0.024,0
		c-0.007,0-0.016,0-0.025,0c-0.008,0-0.017,0.007-0.026,0.007c-0.007,0-0.015,0-0.022,0C9.192,18.48,9.183,18.48,9.173,18.48
		c-0.007,0.006-0.014,0.006-0.021,0.006c-0.008,0.004-0.016,0.004-0.026,0.01c-0.008,0-0.016,0.005-0.024,0.009
		c-0.008,0-0.016,0.005-0.022,0.005c-0.009,0.005-0.019,0.01-0.026,0.016c-0.006,0-0.012,0.003-0.015,0.003
		c-0.002,0-0.003,0.006-0.006,0.006c-0.008,0.004-0.018,0.01-0.026,0.015C9,18.554,8.995,18.554,8.99,18.559
		c-0.008,0.006-0.017,0.014-0.024,0.019c-0.006,0.005-0.012,0.011-0.017,0.014c-0.008,0.006-0.014,0.01-0.02,0.018
		c-0.006,0.006-0.014,0.014-0.02,0.019c-0.004,0.005-0.008,0.011-0.013,0.014c-0.008,0.012-0.015,0.016-0.022,0.025
		c-0.003,0.005-0.007,0.011-0.01,0.014c-0.007,0.01-0.014,0.021-0.019,0.03c-0.002,0-0.003,0-0.004,0.003
		c-0.729,1.154-1.115,2.483-1.115,3.854c0,3.973,3.237,7.21,7.215,7.21c3.977,0,7.21-3.237,7.21-7.21
		c0-1.752-0.636-3.443-1.788-4.76C19.229,16.518,17.672,15.669,15.977,15.426z M14.942,7.109c0.284,0,0.514,0.229,0.514,0.513
		c0,0.286-0.23,0.515-0.514,0.515c-0.285,0-0.516-0.229-0.516-0.515C14.427,7.338,14.657,7.109,14.942,7.109z"/>
	<path fill="#49C4DB" d="M29.524,10.705c-0.795,0-1.206,0.354-1.539,0.64c-0.272,0.233-0.456,0.389-0.866,0.389
		c-0.411,0-0.593-0.155-0.867-0.389c-0.335-0.286-0.745-0.64-1.539-0.64c-0.789,0-1.203,0.354-1.532,0.64
		c-0.276,0.233-0.462,0.389-0.869,0.389c-0.408,0-0.596-0.155-0.871-0.389c-0.328-0.286-0.743-0.64-1.534-0.64
		c-0.793,0-1.204,0.354-1.541,0.64c-0.274,0.233-0.452,0.389-0.864,0.389c-0.123,0-0.227-0.014-0.324-0.042
		c-0.272-0.081-0.559,0.076-0.642,0.349c-0.079,0.271,0.076,0.56,0.348,0.638c0.192,0.058,0.396,0.087,0.618,0.087
		c0.791,0,1.203-0.352,1.536-0.638c0.277-0.238,0.459-0.394,0.869-0.394c0.411,0,0.592,0.156,0.869,0.394
		c0.328,0.286,0.741,0.638,1.536,0.638c0.789,0,1.202-0.352,1.537-0.638c0.274-0.238,0.452-0.394,0.864-0.394
		c0.413,0,0.595,0.156,0.867,0.394c0.333,0.286,0.75,0.638,1.539,0.638c0.793,0,1.206-0.352,1.539-0.638
		c0.276-0.238,0.456-0.394,0.866-0.394c0.285,0,0.517-0.229,0.517-0.513C30.041,10.935,29.81,10.705,29.524,10.705z"/>
</g>
</svg>
